<svg xmlns="http://www.w3.org/2000/svg" xmlns:xlink="http://www.w3.org/1999/xlink" width="500" zoomAndPan="magnify" viewBox="0 0 375 149.999998" height="200" preserveAspectRatio="xMidYMid meet" version="1.0"><defs><g/><clipPath id="de08ddc1c2"><rect x="0" width="241" y="0" height="98"/></clipPath></defs><g transform="matrix(1, 0, 0, 1, 66, 26)"><g clip-path="url(#de08ddc1c2)"><g fill="#000000" fill-opacity="1"><g transform="translate(1.533841, 73.033414)"><g><path d="M 3.828125 -0.34375 C 4.847656 -1.695312 5.566406 -3.242188 5.984375 -4.984375 C 6.410156 -6.722656 6.625 -8.773438 6.625 -11.140625 L 6.625 -37.609375 C 6.625 -39.984375 6.410156 -42.039062 5.984375 -43.78125 C 5.566406 -45.519531 4.847656 -47.0625 3.828125 -48.40625 L 3.828125 -48.765625 L 23.328125 -48.765625 L 23.328125 -48.40625 C 22.304688 -47.0625 21.585938 -45.519531 21.171875 -43.78125 C 20.753906 -42.039062 20.546875 -39.984375 20.546875 -37.609375 L 20.546875 -2.09375 L 23.328125 -2.09375 C 27.046875 -2.09375 30.132812 -2.625 32.59375 -3.6875 C 35.0625 -4.757812 37.09375 -6.289062 38.6875 -8.28125 C 40.289062 -10.28125 41.765625 -12.859375 43.109375 -16.015625 L 43.8125 -16.015625 L 41.796875 0 L 3.828125 0 Z M 3.828125 -0.34375 "/></g></g></g><g fill="#000000" fill-opacity="1"><g transform="translate(42.564813, 73.033414)"><g><path d="M 3.484375 -0.34375 C 4.179688 -1.363281 4.703125 -2.695312 5.046875 -4.34375 C 5.398438 -6 5.578125 -7.800781 5.578125 -9.75 L 5.578125 -21.734375 C 5.578125 -24.054688 5.34375 -25.910156 4.875 -27.296875 C 4.40625 -28.691406 3.707031 -29.851562 2.78125 -30.78125 L 2.78125 -31.140625 L 18.109375 -35.875 L 18.453125 -35.875 L 18.453125 -9.75 C 18.453125 -7.800781 18.625 -6 18.96875 -4.34375 C 19.320312 -2.695312 19.847656 -1.363281 20.546875 -0.34375 L 20.546875 0 L 3.484375 0 Z M 12.046875 -39.359375 C 10.097656 -39.359375 8.453125 -40.03125 7.109375 -41.375 C 5.765625 -42.71875 5.09375 -44.367188 5.09375 -46.328125 C 5.09375 -48.273438 5.765625 -49.921875 7.109375 -51.265625 C 8.453125 -52.609375 10.097656 -53.28125 12.046875 -53.28125 C 14.003906 -53.28125 15.65625 -52.609375 17 -51.265625 C 18.34375 -49.921875 19.015625 -48.273438 19.015625 -46.328125 C 19.015625 -44.367188 18.34375 -42.71875 17 -41.375 C 15.65625 -40.03125 14.003906 -39.359375 12.046875 -39.359375 Z M 12.046875 -39.359375 "/></g></g></g><g fill="#019fac" fill-opacity="1"><g transform="translate(64.512707, 73.033414)"><g><path d="M 32.59375 -1.46875 C 32.226562 -0.8125 31.613281 -0.273438 30.75 0.140625 C 29.894531 0.554688 28.957031 0.765625 27.9375 0.765625 C 26.351562 0.765625 25.0625 0.367188 24.0625 -0.421875 C 23.0625 -1.210938 22.539062 -2.375 22.5 -3.90625 L 22.421875 -4.734375 L 22.15625 -4.734375 C 21.132812 -2.972656 19.773438 -1.613281 18.078125 -0.65625 C 16.378906 0.289062 14.394531 0.765625 12.125 0.765625 C 9.382812 0.765625 7.234375 0.09375 5.671875 -1.25 C 4.117188 -2.601562 3.34375 -4.347656 3.34375 -6.484375 C 3.34375 -8.984375 4.269531 -11.066406 6.125 -12.734375 C 7.988281 -14.410156 10.367188 -15.644531 13.265625 -16.4375 C 16.171875 -17.226562 19.25 -17.625 22.5 -17.625 L 22.5 -23.328125 C 22.5 -25.835938 21.6875 -27.914062 20.0625 -29.5625 C 18.4375 -31.21875 16.300781 -32.046875 13.65625 -32.046875 C 11.5625 -32.046875 9.722656 -31.535156 8.140625 -30.515625 C 6.566406 -29.492188 5.335938 -28.097656 4.453125 -26.328125 L 3.765625 -26.328125 C 4.503906 -29.160156 5.988281 -31.410156 8.21875 -33.078125 C 10.445312 -34.753906 13.09375 -35.59375 16.15625 -35.59375 C 20.007812 -35.59375 23.0625 -34.453125 25.3125 -32.171875 C 27.570312 -29.898438 28.703125 -26.953125 28.703125 -23.328125 L 28.703125 -3.90625 C 28.703125 -3.0625 28.894531 -2.429688 29.28125 -2.015625 C 29.675781 -1.597656 30.175781 -1.390625 30.78125 -1.390625 C 31.570312 -1.390625 32.0625 -1.53125 32.25 -1.8125 Z M 15.53125 -2.5 C 17.570312 -2.5 19.242188 -3.253906 20.546875 -4.765625 C 21.847656 -6.273438 22.5 -7.984375 22.5 -9.890625 L 22.5 -16.15625 C 18.59375 -16.0625 15.515625 -15.304688 13.265625 -13.890625 C 11.015625 -12.472656 9.890625 -10.515625 9.890625 -8.015625 C 9.890625 -6.203125 10.445312 -4.828125 11.5625 -3.890625 C 12.675781 -2.960938 14 -2.5 15.53125 -2.5 Z M 15.53125 -2.5 "/></g></g></g><g fill="#019fac" fill-opacity="1"><g transform="translate(97.462874, 73.033414)"><g><path d="M 5.21875 -0.34375 C 6.425781 -2.019531 7.03125 -4.179688 7.03125 -6.828125 L 7.03125 -25.703125 C 7.03125 -27.234375 6.84375 -28.507812 6.46875 -29.53125 C 6.101562 -30.550781 5.550781 -31.410156 4.8125 -32.109375 L 4.8125 -32.453125 L 12.890625 -35.59375 L 13.234375 -35.59375 L 13.234375 -6.828125 C 13.234375 -4.179688 13.835938 -2.019531 15.046875 -0.34375 L 15.046875 0 L 5.21875 0 Z M 10.09375 -40.1875 C 8.976562 -40.1875 8.023438 -40.59375 7.234375 -41.40625 C 6.453125 -42.21875 6.0625 -43.179688 6.0625 -44.296875 C 6.0625 -45.410156 6.46875 -46.363281 7.28125 -47.15625 C 8.09375 -47.945312 9.03125 -48.34375 10.09375 -48.34375 C 11.257812 -48.34375 12.234375 -47.945312 13.015625 -47.15625 C 13.804688 -46.363281 14.203125 -45.410156 14.203125 -44.296875 C 14.203125 -43.140625 13.804688 -42.164062 13.015625 -41.375 C 12.234375 -40.582031 11.257812 -40.1875 10.09375 -40.1875 Z M 10.09375 -40.1875 "/></g></g></g><g fill="#000000" fill-opacity="1"><g transform="translate(115.997331, 73.033414)"><g><path d="M 2.78125 0 L 2.78125 -1.734375 L 27.71875 -46.671875 L 25.078125 -46.671875 C 19.503906 -46.671875 15.09375 -45.472656 11.84375 -43.078125 C 8.59375 -40.691406 6.082031 -37.128906 4.3125 -32.390625 L 3.625 -32.390625 L 5.578125 -48.765625 L 43.890625 -48.765625 L 43.890625 -47.015625 L 18.953125 -2.09375 L 22.296875 -2.09375 C 27.816406 -2.09375 32.210938 -3.285156 35.484375 -5.671875 C 38.765625 -8.066406 41.285156 -11.632812 43.046875 -16.375 L 43.75 -16.375 L 41.796875 0 Z M 2.78125 0 "/></g></g></g><g fill="#000000" fill-opacity="1"><g transform="translate(161.277688, 73.033414)"><g><path d="M 35.53125 -12.53125 C 34.644531 -8.351562 32.738281 -5.046875 29.8125 -2.609375 C 26.882812 -0.171875 23.332031 1.046875 19.15625 1.046875 C 15.945312 1.046875 13.054688 0.347656 10.484375 -1.046875 C 7.910156 -2.441406 5.867188 -4.484375 4.359375 -7.171875 C 2.847656 -9.867188 2.09375 -13.070312 2.09375 -16.78125 C 2.09375 -20.5 2.890625 -23.804688 4.484375 -26.703125 C 6.085938 -29.609375 8.269531 -31.863281 11.03125 -33.46875 C 13.800781 -35.070312 16.859375 -35.875 20.203125 -35.875 C 23.222656 -35.875 25.867188 -35.257812 28.140625 -34.03125 C 30.410156 -32.800781 32.148438 -31.148438 33.359375 -29.078125 C 34.566406 -27.015625 35.171875 -24.753906 35.171875 -22.296875 L 12.328125 -22.296875 C 12.703125 -19.273438 13.550781 -16.695312 14.875 -14.5625 C 16.195312 -12.425781 17.832031 -10.800781 19.78125 -9.6875 C 21.726562 -8.570312 23.84375 -8.015625 26.125 -8.015625 C 28.03125 -8.015625 29.734375 -8.421875 31.234375 -9.234375 C 32.742188 -10.046875 33.941406 -11.144531 34.828125 -12.53125 Z M 17.0625 -33.921875 C 15.394531 -33.921875 14.15625 -33.1875 13.34375 -31.71875 C 12.53125 -30.257812 12.125 -28.207031 12.125 -25.5625 C 12.125 -24.863281 12.144531 -24.351562 12.1875 -24.03125 L 22.984375 -24.03125 C 22.796875 -27 22.179688 -29.390625 21.140625 -31.203125 C 20.097656 -33.015625 18.738281 -33.921875 17.0625 -33.921875 Z M 17.0625 -33.921875 "/></g></g></g><g fill="#000000" fill-opacity="1"><g transform="translate(196.805355, 73.033414)"><g><path d="M 3.484375 -0.34375 C 4.179688 -1.363281 4.703125 -2.695312 5.046875 -4.34375 C 5.398438 -6 5.578125 -7.800781 5.578125 -9.75 L 5.578125 -21.734375 C 5.578125 -24.054688 5.34375 -25.910156 4.875 -27.296875 C 4.40625 -28.691406 3.707031 -29.851562 2.78125 -30.78125 L 2.78125 -31.140625 L 18.109375 -35.875 L 18.453125 -35.875 L 18.453125 -29.25 L 18.8125 -29.25 C 19.78125 -31.207031 21.160156 -32.800781 22.953125 -34.03125 C 24.742188 -35.257812 26.890625 -35.875 29.390625 -35.875 C 32.640625 -35.875 35.238281 -34.851562 37.1875 -32.8125 C 39.144531 -30.769531 40.125 -28.078125 40.125 -24.734375 L 40.125 -9.75 C 40.125 -7.800781 40.296875 -6 40.640625 -4.34375 C 40.992188 -2.695312 41.519531 -1.363281 42.21875 -0.34375 L 42.21875 0 L 25.140625 0 L 25.140625 -0.34375 C 25.835938 -1.363281 26.359375 -2.695312 26.703125 -4.34375 C 27.054688 -6 27.234375 -7.800781 27.234375 -9.75 L 27.234375 -24.375 C 27.234375 -25.675781 26.835938 -26.753906 26.046875 -27.609375 C 25.265625 -28.472656 24.222656 -28.90625 22.921875 -28.90625 C 21.660156 -28.90625 20.597656 -28.5 19.734375 -27.6875 C 18.878906 -26.875 18.453125 -25.769531 18.453125 -24.375 L 18.453125 -9.75 C 18.453125 -7.800781 18.625 -6 18.96875 -4.34375 C 19.320312 -2.695312 19.847656 -1.363281 20.546875 -0.34375 L 20.546875 0 L 3.484375 0 Z M 3.484375 -0.34375 "/></g></g></g></g></g></svg>