<svg xmlns="http://www.w3.org/2000/svg" xmlns:xlink="http://www.w3.org/1999/xlink" width="500" zoomAndPan="magnify" viewBox="0 0 375 149.999998" height="200" preserveAspectRatio="xMidYMid meet" version="1.0"><defs><g/><clipPath id="24ce6f4cfd"><rect x="0" width="97" y="0" height="125"/></clipPath></defs><g fill="#000000" fill-opacity="1"><g transform="translate(-0.397284, 118.455858)"><g><path d="M 10.375 0 L 10.375 -82.234375 L 18.15625 -82.234375 L 18.15625 -6.953125 L 57.5625 -6.953125 L 57.5625 0 Z M 10.375 0 "/></g></g></g><g fill="#000000" fill-opacity="1"><g transform="translate(61.891473, 118.455858)"><g><path d="M 8.9375 0 L 8.9375 -60.9375 L 16.34375 -60.9375 L 16.34375 0 Z M 12.625 -72.625 C 11.15625 -72.625 9.882812 -73.140625 8.8125 -74.171875 C 7.75 -75.203125 7.21875 -76.4375 7.21875 -77.875 C 7.21875 -79.3125 7.75 -80.535156 8.8125 -81.546875 C 9.882812 -82.554688 11.15625 -83.0625 12.625 -83.0625 C 14.101562 -83.0625 15.375 -82.554688 16.4375 -81.546875 C 17.507812 -80.535156 18.046875 -79.3125 18.046875 -77.875 C 18.046875 -76.4375 17.507812 -75.203125 16.4375 -74.171875 C 15.375 -73.140625 14.101562 -72.625 12.625 -72.625 Z M 12.625 -72.625 "/></g></g></g><g fill="#000000" fill-opacity="1"><g transform="translate(86.60271, 118.455858)"><g/></g></g><g fill="#000000" fill-opacity="1"><g transform="translate(116.774725, 118.455858)"><g/></g></g><g fill="#000000" fill-opacity="1"><g transform="translate(146.946739, 118.455858)"><g/></g></g><g fill="#000000" fill-opacity="1"><g transform="translate(177.130049, 118.455858)"><g><path d="M 6.671875 0 L 6.671875 -5.953125 L 46.140625 -64.015625 C 47.722656 -66.367188 49.378906 -68.734375 51.109375 -71.109375 C 52.835938 -73.484375 54.566406 -75.832031 56.296875 -78.15625 L 57.234375 -75.5 C 53.992188 -75.382812 50.769531 -75.304688 47.5625 -75.265625 C 44.363281 -75.234375 41.148438 -75.21875 37.921875 -75.21875 L 7.015625 -75.21875 L 7.015625 -82.234375 L 63.03125 -82.234375 L 63.03125 -76.21875 L 23.953125 -18.59375 C 22.296875 -16.164062 20.582031 -13.738281 18.8125 -11.3125 C 17.050781 -8.882812 15.269531 -6.472656 13.46875 -4.078125 L 12.53125 -6.671875 C 15.695312 -6.828125 18.859375 -6.910156 22.015625 -6.921875 C 25.179688 -6.941406 28.347656 -6.953125 31.515625 -6.953125 L 63.421875 -6.953125 L 63.421875 0 Z M 6.671875 0 "/></g></g></g><g fill="#000000" fill-opacity="1"><g transform="translate(246.482282, 118.455858)"><g><path d="M 33.5625 1.265625 C 27.851562 1.265625 22.910156 -0.0664062 18.734375 -2.734375 C 14.554688 -5.398438 11.335938 -9.097656 9.078125 -13.828125 C 6.816406 -18.554688 5.6875 -23.992188 5.6875 -30.140625 C 5.6875 -36.316406 6.816406 -41.785156 9.078125 -46.546875 C 11.335938 -51.316406 14.488281 -55.050781 18.53125 -57.75 C 22.582031 -60.457031 27.238281 -61.8125 32.5 -61.8125 C 36.039062 -61.8125 39.382812 -61.175781 42.53125 -59.90625 C 45.675781 -58.632812 48.46875 -56.71875 50.90625 -54.15625 C 53.351562 -51.601562 55.273438 -48.421875 56.671875 -44.609375 C 58.078125 -40.804688 58.78125 -36.367188 58.78125 -31.296875 L 58.78125 -28.3125 L 10.375 -28.3125 L 10.375 -34.71875 L 54.75 -34.71875 L 51.390625 -32.34375 C 51.390625 -36.757812 50.625 -40.6875 49.09375 -44.125 C 47.5625 -47.5625 45.390625 -50.265625 42.578125 -52.234375 C 39.765625 -54.203125 36.40625 -55.1875 32.5 -55.1875 C 28.644531 -55.1875 25.265625 -54.175781 22.359375 -52.15625 C 19.453125 -50.132812 17.1875 -47.4375 15.5625 -44.0625 C 13.945312 -40.695312 13.140625 -36.957031 13.140625 -32.84375 L 13.140625 -29.25 C 13.140625 -24.46875 13.96875 -20.289062 15.625 -16.71875 C 17.28125 -13.15625 19.640625 -10.378906 22.703125 -8.390625 C 25.773438 -6.398438 29.394531 -5.40625 33.5625 -5.40625 C 36.46875 -5.40625 39.03125 -5.863281 41.25 -6.78125 C 43.476562 -7.707031 45.351562 -8.96875 46.875 -10.5625 C 48.40625 -12.164062 49.539062 -13.941406 50.28125 -15.890625 L 57.40625 -14.125 C 56.476562 -11.332031 54.925781 -8.757812 52.75 -6.40625 C 50.582031 -4.050781 47.867188 -2.179688 44.609375 -0.796875 C 41.359375 0.578125 37.675781 1.265625 33.5625 1.265625 Z M 33.5625 1.265625 "/></g></g></g><g fill="#000000" fill-opacity="1"><g transform="translate(310.095442, 118.455858)"><g><path d="M 16.34375 -37.75 L 16.34375 0 L 8.9375 0 L 8.9375 -60.9375 L 16.0625 -60.9375 L 16.109375 -46.6875 L 14.796875 -46.6875 C 16.484375 -51.988281 19.128906 -55.832031 22.734375 -58.21875 C 26.335938 -60.613281 30.476562 -61.8125 35.15625 -61.8125 C 39.3125 -61.8125 42.976562 -60.9375 46.15625 -59.1875 C 49.34375 -57.445312 51.835938 -54.910156 53.640625 -51.578125 C 55.441406 -48.242188 56.34375 -44.128906 56.34375 -39.234375 L 56.34375 0 L 48.953125 0 L 48.953125 -38.6875 C 48.953125 -43.769531 47.535156 -47.765625 44.703125 -50.671875 C 41.867188 -53.578125 38.078125 -55.03125 33.328125 -55.03125 C 30.128906 -55.03125 27.242188 -54.347656 24.671875 -52.984375 C 22.097656 -51.617188 20.066406 -49.648438 18.578125 -47.078125 C 17.085938 -44.503906 16.34375 -41.394531 16.34375 -37.75 Z M 16.34375 -37.75 "/></g></g></g><g transform="matrix(1, 0, 0, 1, 83, 18)"><g clip-path="url(#24ce6f4cfd)"><g fill="#00908b" fill-opacity="1"><g transform="translate(0.860877, 99.611402)"><g><path d="M 37.140625 -7.046875 L 36.765625 -7.046875 C 35.984375 -6.398438 35.050781 -5.585938 33.96875 -4.609375 C 32.882812 -3.640625 31.613281 -2.707031 30.15625 -1.8125 C 28.769531 -0.925781 27.253906 -0.15625 25.609375 0.5 C 23.972656 1.164062 22.195312 1.5 20.28125 1.5 C 15.125 1.5 11.078125 -0.347656 8.140625 -4.046875 C 5.203125 -7.753906 3.734375 -12.8125 3.734375 -19.21875 C 3.734375 -23.625 4.550781 -27.90625 6.1875 -32.0625 C 7.820312 -36.226562 10.082031 -39.96875 12.96875 -43.28125 C 15.707031 -46.445312 18.960938 -49 22.734375 -50.9375 C 26.503906 -52.875 30.382812 -53.84375 34.375 -53.84375 C 36.894531 -53.84375 39.300781 -53.503906 41.59375 -52.828125 C 43.894531 -52.148438 45.703125 -51.390625 47.015625 -50.546875 L 56.78125 -53.046875 L 57.421875 -52.25 L 49.3125 -17.828125 C 49.03125 -16.722656 48.738281 -15.378906 48.4375 -13.796875 C 48.132812 -12.210938 47.984375 -11.046875 47.984375 -10.296875 C 47.984375 -8.273438 48.410156 -6.90625 49.265625 -6.1875 C 50.117188 -5.476562 51.554688 -5.125 53.578125 -5.125 C 54.253906 -5.125 55.210938 -5.226562 56.453125 -5.4375 C 57.703125 -5.65625 58.664062 -5.890625 59.34375 -6.140625 L 58.546875 -2.71875 C 55.335938 -1.4375 52.953125 -0.515625 51.390625 0.046875 C 49.828125 0.617188 47.925781 0.90625 45.6875 0.90625 C 43.125 0.90625 41.09375 0.160156 39.59375 -1.328125 C 38.101562 -2.828125 37.285156 -4.734375 37.140625 -7.046875 Z M 44.78125 -40.765625 C 44.78125 -41.941406 44.65625 -43.0625 44.40625 -44.125 C 44.15625 -45.195312 43.640625 -46.195312 42.859375 -47.125 C 42.140625 -48.007812 41.15625 -48.71875 39.90625 -49.25 C 38.664062 -49.789062 37.101562 -50.0625 35.21875 -50.0625 C 32.625 -50.0625 30.097656 -49.207031 27.640625 -47.5 C 25.191406 -45.789062 22.988281 -43.492188 21.03125 -40.609375 C 19.175781 -37.910156 17.660156 -34.640625 16.484375 -30.796875 C 15.316406 -26.953125 14.734375 -23.054688 14.734375 -19.109375 C 14.734375 -16.929688 14.859375 -15.003906 15.109375 -13.328125 C 15.359375 -11.660156 15.835938 -10.132812 16.546875 -8.75 C 17.222656 -7.394531 18.203125 -6.34375 19.484375 -5.59375 C 20.765625 -4.851562 22.378906 -4.484375 24.328125 -4.484375 C 26.328125 -4.484375 28.421875 -5.039062 30.609375 -6.15625 C 32.796875 -7.28125 35.257812 -9.25 38 -12.0625 Z M 44.78125 -40.765625 "/></g></g></g><g fill="#00908b" fill-opacity="1"><g transform="translate(61.92845, 99.611402)"><g><path d="M 29.40625 -5.8125 L 28.609375 -2.40625 C 25.328125 -1.082031 22.707031 -0.164062 20.75 0.34375 C 18.800781 0.863281 17.132812 1.125 15.75 1.125 C 12.894531 1.125 10.753906 0.382812 9.328125 -1.09375 C 7.910156 -2.570312 7.203125 -4.394531 7.203125 -6.5625 C 7.203125 -7.382812 7.269531 -8.238281 7.40625 -9.125 C 7.550781 -10.007812 7.785156 -11.128906 8.109375 -12.484375 L 13.765625 -35.171875 C 14.054688 -36.410156 14.332031 -37.742188 14.59375 -39.171875 C 14.863281 -40.597656 15 -41.804688 15 -42.796875 C 15 -44.796875 14.664062 -46.125 14 -46.78125 C 13.34375 -47.4375 12.003906 -47.765625 9.984375 -47.765625 C 9.203125 -47.765625 8.160156 -47.640625 6.859375 -47.390625 C 5.554688 -47.140625 4.566406 -46.925781 3.890625 -46.75 L 4.703125 -50.171875 C 7.472656 -51.410156 9.960938 -52.332031 12.171875 -52.9375 C 14.378906 -53.539062 16.117188 -53.84375 17.390625 -53.84375 C 20.316406 -53.84375 22.4375 -53.148438 23.75 -51.765625 C 25.0625 -50.378906 25.71875 -48.507812 25.71875 -46.15625 C 25.71875 -45.519531 25.644531 -44.648438 25.5 -43.546875 C 25.363281 -42.441406 25.15625 -41.335938 24.875 -40.234375 L 19.15625 -17.5625 C 18.800781 -16.175781 18.488281 -14.8125 18.21875 -13.46875 C 17.957031 -12.132812 17.828125 -11.039062 17.828125 -10.1875 C 17.828125 -8.164062 18.28125 -6.78125 19.1875 -6.03125 C 20.09375 -5.28125 21.5625 -4.90625 23.59375 -4.90625 C 24.269531 -4.90625 25.238281 -4.992188 26.5 -5.171875 C 27.757812 -5.347656 28.726562 -5.5625 29.40625 -5.8125 Z M 33.1875 -74.015625 C 33.1875 -71.992188 32.53125 -70.222656 31.21875 -68.703125 C 29.90625 -67.191406 28.269531 -66.4375 26.3125 -66.4375 C 24.5 -66.4375 22.929688 -67.15625 21.609375 -68.59375 C 20.296875 -70.039062 19.640625 -71.691406 19.640625 -73.546875 C 19.640625 -75.492188 20.296875 -77.195312 21.609375 -78.65625 C 22.929688 -80.125 24.5 -80.859375 26.3125 -80.859375 C 28.34375 -80.859375 29.992188 -80.171875 31.265625 -78.796875 C 32.546875 -77.429688 33.1875 -75.835938 33.1875 -74.015625 Z M 33.1875 -74.015625 "/></g></g></g></g></g></svg>

